<svg width="32" height="32" viewBox="0 0 32 32" fill="none" xmlns="http://www.w3.org/2000/svg">
<circle cx="16" cy="16" r="16" fill="#8BE052"/>
<path fill-rule="evenodd" clip-rule="evenodd" d="M15.9998 6.66675C16.3535 6.66675 16.6926 6.80722 16.9426 7.05727C17.1927 7.30732 17.3332 7.64646 17.3332 8.00008V14.6667H23.9998C24.3535 14.6667 24.6926 14.8072 24.9426 15.0573C25.1927 15.3073 25.3332 15.6465 25.3332 16.0001C25.3332 16.3537 25.1927 16.6928 24.9426 16.9429C24.6926 17.1929 24.3535 17.3334 23.9998 17.3334H17.3332V24.0001C17.3332 24.3537 17.1927 24.6928 16.9426 24.9429C16.6926 25.1929 16.3535 25.3334 15.9998 25.3334C15.6462 25.3334 15.3071 25.1929 15.057 24.9429C14.807 24.6928 14.6665 24.3537 14.6665 24.0001V17.3334H7.99984C7.64622 17.3334 7.30708 17.1929 7.05703 16.9429C6.80698 16.6928 6.6665 16.3537 6.6665 16.0001C6.6665 15.6465 6.80698 15.3073 7.05703 15.0573C7.30708 14.8072 7.64622 14.6667 7.99984 14.6667H14.6665V8.00008C14.6665 7.64646 14.807 7.30732 15.057 7.05727C15.3071 6.80722 15.6462 6.66675 15.9998 6.66675V6.66675Z" fill="white"/>
</svg>
